<svg xmlns="http://www.w3.org/2000/svg" width="150" height="150" viewBox="0 0 150 150">
  <path fill="#EC1C24" d="M72.462 40.753H22.428S20.1 53.75 16.72 68.358c-13.405 11.545-4.114 20.04-4.114 20.04L0 148.252l48.042.532 10.617-6.106h61.316S138.114 58.028 149.836 2C95.955 19.52 72.463 40.753 72.463 40.753zm-49.01 42.794S10.01 81.813 21.43 70.68C32.85 59.546 63.5 49.426 63.5 49.426s-24 26.89 11.133 42.503c-40.047-5.783-51.18-8.384-51.18-8.384zm93.47 29.404c-2.122 20.04-49.902 25.084-49.902 25.084s14.917-9.623 19.115-21.236c5.31-17.915-4.78-22.03-4.78-22.03s36.96 7.567 35.567 18.184zM95.424 88c-30.063-5.773-30.71-17.667-30.86-19.908-.148-2.24-.197-29.662 80.627-58.13-11.346 52.955-19.906 92.967-19.906 92.967S123.89 94.17 95.424 88z"/>
</svg>
